<svg id="Capa_1" data-name="Capa 1" xmlns="http://www.w3.org/2000/svg" xmlns:xlink="http://www.w3.org/1999/xlink" viewBox="0 0 778.52 975"><defs><style>.cls-1{fill:url(#Nueva_muestra_de_degradado_1);}.cls-2,.cls-8{fill:#112f41;}.cls-3{fill:#fff;}.cls-4,.cls-8{font-size:101.22px;font-family:Ubuntu-Bold, Ubuntu;font-weight:700;}.cls-10,.cls-4{fill:#5cd2b9;}.cls-5{letter-spacing:0.02em;}.cls-6{letter-spacing:0em;}.cls-7{letter-spacing:-0.02em;}.cls-9{letter-spacing:-0.02em;}</style><linearGradient id="Nueva_muestra_de_degradado_1" x1="365.33" y1="782.55" x2="714.68" y2="177.46" gradientUnits="userSpaceOnUse"><stop offset="0.04" stop-color="#5cd2b9"/><stop offset="1" stop-color="#c5ffe4"/></linearGradient></defs><title>isologotype</title><path class="cls-1" d="M889.34,290.9V669.13A21.75,21.75,0,0,1,878.44,688v0L550.91,877.07a21.78,21.78,0,0,1-21.82,0L201.57,688v0a21.75,21.75,0,0,1-10.9-18.86V290.9A21.84,21.84,0,0,1,201.56,272h0L529.09,82.93a21.78,21.78,0,0,1,21.82,0L878.43,272h0A21.84,21.84,0,0,1,889.34,290.9Z" transform="translate(-150.74 -80)"/><path class="cls-2" d="M878.44,272h0L550.91,82.93a21.78,21.78,0,0,0-21.82,0L201.57,272h0a21.84,21.84,0,0,0-10.9,18.89V669.13A21.75,21.75,0,0,0,201.56,688v0L529.09,877.07a21.78,21.78,0,0,0,21.82,0L878.43,688v0a21.75,21.75,0,0,0,10.9-18.86V290.9A21.84,21.84,0,0,0,878.44,272ZM529.09,108.14a21.81,21.81,0,0,1,21.82,0L856.59,284.63l-3.75,2.16L769.28,335,550.91,209a21.84,21.84,0,0,0-21.82,0L310.72,335,238.07,293.1l-14.66-8.47ZM664.57,476.28,561.84,417l-10.93-6.31v-169a4.29,4.29,0,0,1,6.44-3.71L747.43,347.64l6.63,3.83a8.58,8.58,0,0,1,4.25,6.79c0,.21,0,.42,0,.64V593.49a21.78,21.78,0,0,1-10.9,18.87v0L561.84,719.5l-4.49,2.59a4.29,4.29,0,0,1-6.44-3.71V549.32l113.66-65.6a4.3,4.3,0,0,0,0-7.44ZM529.09,851.87,225.61,676.64h0l-2.17-1.25v0a21.83,21.83,0,0,1-10.91-18.88V303.54L299.82,354V606.09A21.81,21.81,0,0,0,310.72,625l0,0,2.19,1.27L529.09,751Zm0-133.49a4.29,4.29,0,0,1-6.44,3.71L334.77,613.64l-2.2-1.26v0a21.78,21.78,0,0,1-10.9-18.87V358.9a8.6,8.6,0,0,1,4.28-7.43l6.63-3.83L522.65,237.91a4.29,4.29,0,0,1,6.44,3.71V410.67L415.43,476.28a4.31,4.31,0,0,0,0,7.44l8.23,4.75,105.43,60.85Zm10.91-188-10.91-6.31-61.76-35.63L452.66,480l76.43-44.1L540,429.59l10.91,6.31L627.34,480l-3.75,2.16h0L550.91,524.1ZM867.5,656.49a21.83,21.83,0,0,1-10.91,18.88v0L561.84,845.57l-10.93,6.3V751L769.25,625l0,0a21.81,21.81,0,0,0,10.9-18.87V354l87.32-50.41Z" transform="translate(-150.74 -80)"/><polygon class="cls-3" points="476.6 400 472.85 402.16 472.84 402.16 411.1 366.53 400.17 360.21 389.26 366.53 316.6 408.47 301.92 400 378.35 355.9 389.26 349.58 400.17 355.9 476.6 400"/><polygon class="cls-3" points="378.35 469.32 378.35 473.65 269.17 410.63 272.92 408.47 378.35 469.32"/><path class="cls-3" d="M681.92,490.63,561.84,560V719.5l-4.49,2.59a4.29,4.29,0,0,1-6.44-3.72v-169l113.66-65.6a4.37,4.37,0,0,0,1.81-2.06Z" transform="translate(-150.74 -80)"/><path class="cls-3" d="M529.09,751v4.34L321.66,635.61l0,0a21.65,21.65,0,0,1-8.69-9.33Z" transform="translate(-150.74 -80)"/><path class="cls-3" d="M867.51,303.54v16.94l-76.42,44.11V616.73a21.75,21.75,0,0,1-10.9,18.85v0l-218.34,126v83.92l-10.93,6.3V751L769.25,625l0,0a21.78,21.78,0,0,0,10.9-18.86V354Z" transform="translate(-150.74 -80)"/><path class="cls-3" d="M758.31,358.26,561.84,244.83V417l-10.93-6.31v-169a4.29,4.29,0,0,1,6.44-3.72L747.43,347.64l6.63,3.84A8.54,8.54,0,0,1,758.31,358.26Z" transform="translate(-150.74 -80)"/><path class="cls-3" d="M529.09,241.63v9.49L343.5,358.27l-10.93,6.32V604.12a21.78,21.78,0,0,0,2.2,9.53l-2.2-1.27v0a21.79,21.79,0,0,1-10.9-18.87V358.9a8.55,8.55,0,0,1,4.28-7.42l6.63-3.84L522.65,237.91A4.29,4.29,0,0,1,529.09,241.63Z" transform="translate(-150.74 -80)"/><path class="cls-3" d="M223.41,314.17v353a21.91,21.91,0,0,0,2.19,9.52l-2.17-1.25,0,0a21.8,21.8,0,0,1-10.92-18.88V303.54L299.82,354v4.33Z" transform="translate(-150.74 -80)"/><path class="cls-3" d="M856.59,284.63l-3.75,2.16-291-168a21.85,21.85,0,0,0-21.84,0L238.07,293.1l-14.66-8.47L529.09,108.14a21.81,21.81,0,0,1,21.82,0Z" transform="translate(-150.74 -80)"/><text class="cls-4" transform="translate(1.95 952.63)">B<tspan class="cls-5" x="68.02" y="0">l</tspan><tspan class="cls-6" x="101.52" y="0">ackB</tspan><tspan class="cls-7" x="334.72" y="0">o</tspan><tspan x="394.33" y="0">x</tspan><tspan class="cls-2" x="450.41" y="0" xml:space="preserve"> V</tspan><tspan x="547.77" y="0">ision</tspan></text><text class="cls-8" transform="translate(0 950.68)">B<tspan class="cls-5" x="68.02" y="0">l</tspan><tspan x="101.52" y="0">ackB</tspan><tspan class="cls-9" x="334.72" y="0">o</tspan><tspan x="394.33" y="0">x </tspan><tspan class="cls-10" x="474.7" y="0">V</tspan><tspan x="547.77" y="0">ision</tspan></text></svg>