<svg xmlns="http://www.w3.org/2000/svg" width="702" height="480.1"><style>.st0{fill:#fefefe}.st1{fill:#fee44c}</style><path class="st0" d="M148.8 435.3c-5.7-.1-9.9-2.5-12.4-7.7-1.5-3.1-2.2-6.4-2.3-9.9 0-1.8-.6-2.8-2.7-2.3-10.1 2.3-17.9 7.3-22.1 17.1-2.7 6.3-3.1 12.8-1.9 19.6 1.9 10.6 6.9 19 16.5 24.4 1.3.7 2.7 1.2 4.1 1.8.9.4 2.1.5 2 1.9-3.6-2-7.5-3.4-10.8-5.9-13.7-10.1-18.7-36.1-4.8-50.8 5.2-5.5 11.9-7.5 18.8-9.3 1.2-.3 1.4.5 1.5 1.4.2 1.9.3 3.9.6 5.8 1 6.5 3.9 11.9 10.9 13.1 7.2 1.3 13.3-1.2 17.8-7.1 4.2-5.6 5.1-12.2 6-18.8.6-4.4.7-8.8.7-13.3-5.9-.3-11.8-1.2-17.2-3.6-4.6-2.1-8.6-4.7-9.5-10.3-.2-1.2-1.1-1-1.9-1.1-3.7-.6-7.4-1.3-11-2.8-1-.4-2-.9-2.2-2.2-.1-.9-.2-2 .7-2.5.9-.4 1.2.7 1.7 1.1 3.3 2.9 7.6 3.2 11.6 4 1 .2 1.6-.6 2-1.3 4.8-8.3 12.6-10.5 21.4-10.7 1.2 0 2.4 0 3.6-.1-.8-12.5-1.5-24.9-1.5-37.4 0-4.3.6-8.5 1.4-12.7.1-.7.2-1.4.3-2.6.6.4.6 1.5.3 3.4-1.5 8.3-1.5 16.7-.9 25.2.4 6.1.5 12.2.7 18.3.1 1.9 1 3.9.1 5.8 0 .1-.1.1-.1.2h-.1c-1.2.8-2.6.6-4 .6-8.5.1-15.9 2.5-20.6 10.2-.8 1.3-2 1.8-3.6 1.6-3.7-.5-7.3-1.4-10.5-3.3-.4-.3-.8-.8-1.6-.4 0 1.6 1.2 2.1 2.4 2.5 2.9 1.2 6 1.8 9.1 2.3 1.5.2 2.7.7 3.2 2.3 1.6 5.6 6.1 8.1 11 10 4.2 1.6 8.6 2.1 13 2.7.7.1 1.5.1 2.1.6l.1.1v.1c1 2.1.6 4.4.5 6.6-.5 7.6-1 15.2-4.5 22.1-3.7 7.2-9.5 11.4-17.9 11.3zM242.4 169.5c5-12.5 13.2-22.6 23-31.6 15.3-14 32.9-24.5 51.5-33.4 1.2-.6 2.3-1.1 3.5-1.7.1-.1.2-.3.5-.9-8.3 1.2-16.2 2.4-24.3 2.9-10.2.6-20.3 1-30.3-1.7-14.5-3.8-20.5-13.8-17.3-28.5 2.4-11.1 8.2-20.3 15.8-28.6 13.7-14.8 30.7-24.6 49.2-31.8C332.5 7 351.8 2.6 371.5.2c4.1-.5 8.3-.4 12.4.9 2.7.8 4.4 2.3 5 5.3 1 5.2 2.4 10.3 3.5 15.4.9 4-.5 7.3-3.9 9.6-5.7 3.8-11.9 6.8-17.4 10.9-6 4.5-11.7 9.4-17.7 13.8-1.5 1.2-3.3 3.5-5.5 1.4-2-1.9-.3-4 .7-5.8 3.1-5.5 7.1-10.3 11.3-15.4-1.6-.5-2.9.1-4.1.4-23.2 5-45.1 13.1-64.2 27.7-4.1 3.2-7.9 6.7-11.1 10.9-1.2 1.6-2.2 3.2-2.9 5-1.7 4.3-.1 7.6 4.4 8.5 5 1.1 10.1.8 15.2.3 20.6-1.9 40.7-6.4 60.9-10.5 3.4-.7 6.8-1.1 10.2-.8 4.4.5 5.8 2.3 5.2 6.7-.4 2.6-1.2 5-2.1 7.5-1.9 5.1-5.2 8.7-10.2 11.2-8.9 4.3-18.4 7.2-27.5 11.2-18.5 8.1-35.9 17.9-50.7 32-6.5 6.2-12.4 12.8-15.5 21.4-2.2 5.9-.7 8.4 5.5 9.6 6.3 1.2 12.6.2 18.7-.9 20.9-3.8 40.2-11.8 58.4-22.6 8.2-4.9 15.3-11.4 22.4-17.7 4.6-4.1 9.2-8.3 13.8-12.5 1.4-1.3 2.1-1.3 2.6.8 1.7 7.1 3.2 14.3 1.9 21.7-1.5 8.1-6.1 14.6-11.6 20.5-16.9 18.1-37.8 29.8-61.2 37.3-15.2 4.8-30.8 7.3-46.7 6.5-5.6-.3-11.3.2-16.3-3.3-10.5-7.2-19-21.6-12.6-37.7zM483 370.1c-.8-1.4-1.3-1.3-2.1-.2-1.9 2.5-3.7 5.1-5.7 7.5-4.8 6.2-9.2 12.8-15.2 18-4.2 3.6-6.9 2.8-9.1-2.3-.4-.9-.7-1.9-1-2.9-2.3-7.3-1.8-14.6-.3-21.9 2.9-13.6 7.8-26.6 11.7-39.9 3.1-10.5 6.9-20.9 9.4-31.6.9-4 1.6-8 .4-12.1-2-6.5-7.6-8-12.6-3.3-1.6 1.5-2.8 3.4-3.9 5.3-3.8 6.7-6 13.9-8 21.2-3 11-5.1 22.1-7.4 33.2-.4 1.9-.9 2.8-2.7 1.1-3.2-3-6.6-3-10.5-1.2-6.8 3.1-12.8 7.4-18.3 12.4-9.4 8.4-17.7 17.8-21.6 30-1.8 5.6-4.7 10.3-7.9 15-2.1 3.1-4.6 5.8-8.3 7.2-1 .4-2.1 1-2.9.3-.9-.7-.2-1.9 0-2.9 1.6-8.1 3-16.2.7-24.4-1.4-4.9-3.4-9.2-9.4-9.9.2-.5.3-.8.5-.9 1.9-1.9 3-4 1.8-6.7-1.3-2.9-3.7-4.2-6.8-4.4-2.5-.2-4.9.1-7.4 1-12.5 4.6-22.3 12.5-30.3 23-5.9 7.7-10.7 16-11.3 25.8-.3 4.6-2.1 8-4.7 11.5-2 2.8-4.4 5.3-7.7 6.6-1 .4-2.2 1.1-3.2.4-.9-.7-.2-1.9 0-2.9 1.6-8.1 3-16.2.7-24.4-1.4-5-3.5-9.2-9.4-9.9.2-.5.3-.8.5-1 1.9-1.9 3-4 1.7-6.7-1.3-2.9-3.7-4.2-6.8-4.4-2.5-.2-4.9.1-7.3 1-12.3 4.5-22.1 12.3-30 22.5-8.3 10.7-13.8 22.4-11.4 36.4 1.7 9.7 5.3 18.5 12.8 25.3 4.7 4.3 10.2 6.5 16.8 4.8 8.9-2.4 15.9-7.7 20.7-15.3 3.3-5.2 7-8.8 13.1-10.7 7.3-2.3 12.3-8 16.3-15.1 1.8 5.2 4.1 9.5 7.1 13.5 7.3 9.6 16.4 11.8 27.1 6.3 8-4 13.5-10.6 17.8-18.2 1-1.7 2.2-2.7 4.1-3.3 9.4-2.5 16.5-8 21.3-16.5.3-.6.4-1.5 1.4-1.6.5 1 .9 2 1.4 3 3 5.9 6.3 11.6 11.8 15.5 3.8 2.8 6.9 2.6 10.6-.3 1.4-1.1 2.6-2.3 3.8-3.6 5.3-6 9.5-12.8 13.6-19.5 1.9-3 3.7-6 6-9.7.5 4.1.9 7.3 1.4 10.6.8 5.3 1.9 10.6 5.7 14.8 3.6 4 7.4 4.8 12.2 2.6 4.8-2.2 8.6-5.7 12-9.6 7.7-8.9 13.4-19 19.1-29.2 2-3.7 1.4-6.2-.3-9.3zm-215.4 68.2c-3.3 5.1-6.6 10.1-13.2 11.5-5.4 1.2-9.1-1.1-10.1-6.6-1.8-10.2 1.2-19.2 7.7-27.1 4-4.8 8.4-9.3 13.2-13.5-.4 4.7-1.7 9.1-2.3 13.7-.9 7.1-.4 13.9 4.1 19.8.5.7 1.2 1.2.6 2.2zm77.8-18.9c-3.3 5.1-6.6 10.1-13.1 11.5-5.5 1.2-9.2-1-10.1-6.6-1.7-10 1-18.8 7.4-26.7 4.1-5 8.7-9.5 13.6-14-.4 4.7-1.8 9.3-2.3 13.9-.8 7-.3 13.7 4.1 19.6.2.7 1 1.3.4 2.3zm84.3-46.5c-5.6 10.5-12.3 20.2-20.1 29.1-1.1 1.2-2.1 3-4.3 2.2-2.1-.8-2.3-2.6-2.7-4.5-1.7-9.3 1.6-16.8 8.1-23.2 7.1-7 15.4-12.6 24-18.3-.4 5.7-2.6 10.3-5 14.7zM607.7 99.2c-.4-.9-.7-1.8-1.1-2.9 1.5.4 1.5 2.3 2.1 3.5 3.2 7.2 7.8 13.2 15.1 16.7 5.4 2.5 7.2 2.2 11.4-2 9.9-9.6 18.7-20.3 27.5-30.9.8-1 1.8-3 3.1-2.3.1.1.2.1.3.2-1.4.2-1.8 1.3-2.4 2-8.8 10.7-17.6 21.5-27.6 31.1-4.8 4.7-5.5 5.9-13.7 1.9-7.3-3.5-11.7-9.9-14.7-17.3z"/><path class="st0" d="M81.5 379.5c-3.5 10.3-1.6 19.1 6.9 26.2.8.7 1.5 1.3 2.3 2 1.5 1.2 4.4 2.7 4.2 3.5-.4 1.9-3 2.7-4.7 3.8-8.7 5.6-17.9 10-28.2 11.9C34 432 5.9 412.6.9 384.6c-3.2-18.2 2.1-34.2 13.3-48.5 8.4-10.8 19.3-18.5 31.2-24.9 20.9-11.2 43.1-18.5 65.9-24.4 37-9.6 74.5-16.7 112.1-23.4 26.7-4.8 53.5-9.6 80.2-14.2 34.7-6 69.2-13.3 103.4-21.5 29-7 57.9-14.8 86.5-23.4 26.8-8 53.2-17.1 78.7-28.6 22-9.9 43.1-21.4 61.3-37.6 8.1-7.2 15.4-15 20.6-24.5 3.5-6.4 5.3-13.6 7.9-20.4 1.4-3.8 2.7-7.6 4.1-11.5 1 .9-.1 2.5-.5 3.7-2.6 7.2-5.1 14.5-7.7 21.7-3.1 8.5-8.2 15.8-14.3 22.3-14.1 15.1-30.9 26.6-49.1 36.3-29.3 15.6-60.3 26.9-91.9 36.7-24.9 7.8-50.1 14.7-75.4 21.2-39.7 10.1-79.7 18.7-119.9 26-37.5 6.8-75.2 12.7-112.7 20-26 5.1-52 10-77.6 16.7-19.3 5.1-38.5 10.4-56.6 18.7-12 5.5-23.8 11.2-33.9 19.9-12.7 10.9-21.9 24-24.9 40.9-4.9 27.8 13.4 56.3 44.4 60.9 13.6 2 26-1.7 37.8-8.3 3-1.7 5.9-3.5 8.7-5.4 1.5-1 1.6-1.8 0-2.9-3.3-2.2-6.1-5.1-8.7-8.1-4.1-4.9-5.4-10.7-4.3-16.9 2.1-11.5 8-21 15.6-29.6 9.7-10.8 21.8-18.3 34.3-25.1 12-6.5 24.4-12 37.2-16.7 1.6-.6 2.6-.8 3.2-.5-5.3 2.1-10.2 4-15.1 6.1-17 7.2-33.5 15.4-48.2 26.7-11.5 8.5-20.3 19.5-25 33.5z"/><path class="st0" d="M701.3 37.4c-2.3 9.2-6.4 17.7-10 26.4-6.3 15.1-12.9 30.1-19 45.3-2.5 6.4-4.2 13.1-7.8 19.2-7.1 11.8-16 21.9-26.6 30.6-24.8 20.4-53.2 33.9-82.7 45.7-33.8 13.4-68.5 23.6-103.5 33.3-28.7 7.9-57.7 14.7-86.6 21.7-31.4 7.7-63.1 14.5-94.4 22.6-26.7 7-53.3 13.9-79.5 22.8-7.1 2.4-7.5 2.8-8 10.5-.4 6.7-.1 13.3 1 19.9 1.7 9.9 3.5 19.8 5.5 29.7 6.8-.2 13.4-1.6 19.9-3.3 6.4-1.6 12.5-4.1 18.6-7.1-8.5 14.3-20.2 25.3-34.5 33.8-.7 6.1.1 12.2-.2 18.2-.6 12.4-.9 24.9-6 36.6-7.3 16.6-18.4 29.4-36.2 35.1-1.5.5-3.1.3-4.3 1.6.2-1.5 1.5-1.5 2.4-1.8 15.7-4.5 26.5-14.7 34.3-28.8 6.2-11.3 8.1-23.6 8.8-36.3.5-8.2-.6-16.3.7-24.5v-.1c0-.1.1-.2.2-.3.8-1.3 2.2-1.9 3.5-2.6 11.1-7 20.2-16.1 28.1-26.4.6-.7 1.1-1.5 1.5-2.3.1-.2.3-.5.2-1.1-1.6.7-3.1 1.6-4.6 2.3-9.2 4.1-19 6.1-28.9 7.4-1.2.1-2.4.2-3.5-.4-.1 0-.1-.1-.2-.1-1-.9-1-2.2-1.2-3.4-2-10.8-4.5-21.6-5.6-32.6-.6-6-.6-12 .4-18 .6-3.3 2.3-5.2 5.4-6.2 9.4-3.1 18.8-6.1 28.3-9 30-9 60.4-16.2 90.8-23.8 15.2-3.8 30.6-6.7 45.7-10.5 22.5-5.8 45.2-10.6 67.7-16.5 26.2-6.9 52.4-14 78.3-22 25-7.7 49.6-16.4 73.5-26.9 21.6-9.4 42.3-20.4 60.9-35.2 7-5.6 14-11.3 19.6-18.4 7.2-9.1 13.9-18.6 17-30.3 2.1-8.2 6.3-15.8 9.5-23.7 5.7-13.8 11.7-27.4 17.3-41.2 1.7-4.2 2.9-8.6 3.8-13.1 1-5.4-1.2-9.8-4.6-13.7-1.9-2.1-3.4-2-5.5 0-4.5 4.5-7.9 9.8-11.6 14.9-9.6 13.4-18.9 27-28.9 40.1-5 6.5-10.6 12.6-17.6 17.2-1.5 1-3 1.8-4.6 2.5-2.8 1.2-4.1.7-4.3-2.5-.3-5.2.5-10.3 4-14.6 7-8.6 13.4-17.7 19-27.3 2.2-3.7 4.1-7.5 5.6-11.5 2-5.5 1.2-8-3.4-11.5-.6-.5-1.2-.9-1.8-1.3-4.2-2.6-6-2.6-9.6.7-13 12-23 26.1-28.9 42.9-1.7 4.7-2.8 9.6-2.7 14.7 0 1.4.4 4.1-2.5 1.9-.8-.6-1.3.4-1.8.9-5.4 6.3-11 12.5-16.7 18.6-6.4 6.7-13.5 12.1-23 13.5-1.6.2-3.9 1-4.7-.5-1-1.7 1.3-2.8 2.4-3.9 7.5-7.2 13.6-15.3 17.3-25.2 3.5-9.3 3.4-18.5.1-27.7-2.7-7.7-6.3-15-9.1-22.7-1.6-4.4-3.6-5.3-8.2-4.7-6.5.9-11.4 5.8-11.3 12.3 0 4.5-1.6 8-4.2 11.4-13 17.2-25.7 34.7-38.6 52-2.3 3-4.5 6.2-5.3 10-.2.7-.6 1.4-1.1 1.9-3.6 2.9-7.3 5.7-12.1 6.5-5.8 1-9.8-2.7-9-8.7.6-4.7 2.5-9.1 4.5-13.4 2.6-5.5 6-10.7 8.2-16.4.9-2.2 1.9-4.5 1.5-7-.5-3.3-2.3-5.8-5.5-7.1-2.9-1.3-2.9-1.8-.4-3.8.2-.2.4-.3.7-.5 4.5-3.6 4.6-6.1.1-9.7-3.9-3.1-8.3-4.2-13.3-3.2-8.5 1.9-16.2 5.7-23.7 10-14.2 8.1-26.8 18.2-37.9 30.1-5.6 6.1-10.5 12.7-13.9 20.3-6.6 15.2-2.8 25 9.2 35.7 2.4 2.2 5.2 3.8 8.1 5.4 4 2.1 7.4 1.6 11-1.3 5.1-4.2 9.4-9.1 13.8-14.1 7-8 13.7-16.3 20.7-24.3.4-.5.8-1 1.3-1.4 1-.9 1.7-.5 1.9.7.2.9-.1 1.8-.3 2.7-1.6 6-2.5 12.2-3.2 18.3-.5 4.1.1 8.1 2 11.9 2.4 4.6 7.3 6.6 12.2 5 2.6-.8 4.9-2.1 7.1-3.7 9.7-7.1 17.7-16 25.3-25.2 4.2-5 4.1-5.1 8.6-.4 6.8 7.1 15.3 10.5 24.9 11.7 4.8.6 9.6.5 14.3-.5 8.3-1.8 15-6.5 21.4-11.8 10.2-8.5 18.5-18.9 26.4-29.5.9-1.2 1.5-3.1 3.3-2.9-1.5 1.1-2.1 2.5-3 3.8-9.1 12.3-19.1 23.8-31.2 33.3-16.8 13.1-40.2 10.3-53.4-.5-2-1.7-3.9-3.4-5.3-5.6-.9-1.4-1.5-1.7-2.7-.1-5.5 6.9-11.3 13.5-17.6 19.6-4.5 4.3-9 8.6-14.6 11.5-8.6 4.4-16.5.3-18-9.3-1.3-8.3.9-16.2 2.5-24.1.3-1.5.7-3 .5-4.8-2 2.4-4.1 4.7-6.2 7.1-7 8.1-13.9 16.3-21 24.5-3.3 3.8-6.9 7.2-11 10.2-2.4 1.7-4.9 2.3-7.6 1.1-11.7-5.5-20.9-13.4-23.1-26.8-1.3-8 2-15.3 6-22.1 8.6-14.4 20.8-25.5 34.1-35.3 10.7-7.9 22-14.6 34.8-18.8 5.4-1.7 10.7-2.4 15.8.7.2.1.3.2.5.3 7 4.1 7.3 8.3.7 12.9-.5.4-1 .7-1.5 1.1.2 1 1 .8 1.6 1 5.4 2.1 7.8 6.8 6.1 12.3-1.2 3.9-3.2 7.5-5 11.1-3.4 6.6-7.3 13.1-8.6 20.7-1.1 6.5 2.2 9.8 8.7 8.6 4.6-.9 8-3.7 11.5-6.5.3-.2.6-.6.6-.9.5-4.7 3.6-8 6.2-11.6 13.3-18 26.6-36 40-54 1.4-1.8 1.6-3.6 1.6-5.7 0-6.2 2-11.3 8-14.1 2.5-1.2 5.1-1.5 7.9-1.3 2 .1 3.7 1.1 4.4 3 3.9 11.4 10.4 21.7 12.2 33.8 1.5 10.1-1.3 19.2-6.2 27.9-4 7.2-9.4 13.2-15.3 18.9-.4.3-1 .6-.9 1.5 6.3 0 12-1.9 17.2-5.3 6.3-4.1 11.1-9.7 16.1-15.2 3.5-3.9 7-7.9 10.5-11.9 1.4-1.7 2.5-2.7 3.6.4 1.7-24.3 14.3-42.7 30.7-59 5.9-5.8 7.3-6.4 15-.2 4.4 3.5 4.8 6 2.6 11.5-3.5 9.2-8.9 17.2-14.4 25.2-3.4 5-7 9.8-10.8 14.5-3.4 4.3-3.7 9.5-3.2 14.8.2 2 1.4 1.2 2.4.9 4.2-1.8 7.9-4.3 11.3-7.4 7.6-6.8 13.4-15.1 19.4-23.2 10-13.5 19.2-27.7 29.6-41 1.1-1.4 2.3-2.7 3.5-3.9 2.1-2 3.8-2 5.8.1 4 5.3 5.7 11 4 17.7z"/><path class="st1" d="M193.6 406.8c-.6 12.4-.9 24.9-6 36.6-7.3 16.6-18.4 29.4-36.2 35.1-1.5.5-3.1.3-4.3 1.6h-17.2c-3.6-2-7.5-3.4-10.8-5.9-13.7-10.1-18.7-36.1-4.8-50.8 5.2-5.5 11.9-7.5 18.8-9.3 1.2-.3 1.4.5 1.5 1.4.2 1.9.3 3.9.6 5.8 1 6.5 3.9 11.9 10.9 13.1 7.2 1.3 13.3-1.2 17.8-7.1 4.2-5.6 5.1-12.2 6-18.8.6-4.4.7-8.8.7-13.3l.1-.1c.9-1 2.2-.7 3.3-.8 5.7-.6 11.1-1.9 16.1-4.8 1-.6 2.1-1.5 3.5-1.1.1 0 .2.1.4.1-.9 6.1-.1 12.2-.4 18.3zM696.8 20c-2-2.2-3.6-2.1-5.8-.1-1.3 1.2-2.5 2.5-3.5 3.9-10.4 13.3-19.6 27.4-29.6 41-6 8.1-11.8 16.4-19.4 23.2-3.4 3-7.1 5.6-11.3 7.4-1 .4-2.2 1.1-2.4-.9-.4-5.3-.2-10.4 3.2-14.8 3.7-4.7 7.4-9.5 10.8-14.5 5.5-8 10.9-16.1 14.4-25.2 2.1-5.5 1.7-8-2.6-11.5-7.8-6.2-9.2-5.7-15 .2-16.4 16.3-29 34.7-30.7 59-1-3.1-2.2-2-3.6-.4-3.4 4-6.9 8-10.5 11.9-5 5.5-9.8 11.1-16.1 15.2-5.2 3.4-10.9 5.2-17.2 5.3-.1-1 .5-1.2.9-1.5 5.9-5.7 11.3-11.7 15.3-18.9 4.9-8.7 7.7-17.8 6.2-27.9-1.8-12.1-8.4-22.4-12.2-33.8-.6-1.8-2.3-2.8-4.4-3-2.7-.2-5.4.1-7.9 1.3-5.9 2.8-8 7.9-8 14.1 0 2.1-.2 3.8-1.6 5.7-13.4 17.9-26.7 36-40 54-2.6 3.5-5.7 6.9-6.2 11.6 0 .3-.3.7-.6.9-3.5 2.8-6.9 5.6-11.5 6.5-6.4 1.2-9.8-2.1-8.7-8.6 1.3-7.5 5.2-14 8.6-20.7 1.9-3.6 3.8-7.2 5-11.1 1.7-5.5-.7-10.2-6.1-12.3-.5-.2-1.4 0-1.6-1 .5-.3 1-.7 1.5-1.1 6.6-4.6 6.4-8.8-.7-12.9-.2-.1-.3-.2-.5-.3-5.2-3-10.4-2.4-15.8-.7-12.8 4.1-24.1 10.9-34.8 18.8-13.3 9.8-25.5 20.9-34.1 35.3-4 6.8-7.3 14-6 22.1 2.2 13.4 11.4 21.3 23.1 26.8 2.7 1.2 5.2.6 7.6-1.1 4-3 7.7-6.4 11-10.2 7-8.1 14-16.3 21-24.5 2-2.4 4.1-4.7 6.2-7.1.2 1.8-.2 3.3-.5 4.8-1.6 8-3.8 15.9-2.5 24.1 1.5 9.6 9.5 13.7 18 9.3 5.6-2.9 10.1-7.2 14.6-11.5 6.3-6.1 12.2-12.7 17.6-19.6 1.2-1.6 1.8-1.3 2.7.1 1.4 2.2 3.3 4 5.3 5.6 13.2 10.7 36.6 13.6 53.4.5 12.2-9.5 22.1-21 31.2-33.3.9-1.2 1.6-2.7 3-3.8 0 0 .1-.1.2-.1 0 0 0 .1.1.2.4 1.1.7 2 1.1 2.9 3 7.4 7.4 13.8 14.7 17.4 8.2 4 8.9 2.8 13.7-1.9 10-9.7 18.8-20.4 27.6-31.1.6-.7.9-1.7 2.4-2h.1v.1c-1.4 4-2.7 7.8-4.1 11.5-2.6 6.8-4.3 14-7.9 20.4-5.2 9.5-12.6 17.4-20.6 24.5-18.2 16.2-39.3 27.6-61.3 37.6-25.5 11.5-51.9 20.6-78.7 28.6-28.6 8.6-57.4 16.4-86.5 23.4-34.2 8.2-68.7 15.5-103.4 21.5-26.8 4.6-53.5 9.3-80.2 14.2-37.6 6.8-75.1 13.8-112.1 23.4-22.8 5.9-45.1 13.2-65.9 24.4-12 6.4-22.8 14.1-31.2 24.9C3 350.4-2.3 366.3.9 384.6 5.9 412.7 34 432 62 427c10.3-1.9 19.5-6.3 28.2-11.9 1.8-1.1 4.3-1.9 4.7-3.8.2-.9-2.7-2.3-4.2-3.5-.8-.6-1.5-1.3-2.3-2-8.5-7.1-10.4-15.9-6.9-26.2 4.7-14 13.5-24.9 25.1-33.8 14.7-11.3 31.2-19.5 48.2-26.7 4.9-2 9.8-4 15.1-6.1h.1v.1c-.1 1.2-.2 1.9-.3 2.6-.8 4.2-1.4 8.4-1.4 12.7 0 12.5.7 25 1.5 37.4.1.1.1.2.2.2.5.5 1.3.7 2 .7 5 .1 10 .1 14.9 0 1.1 0 2.1-.2 2.8-1.2 0 0 .1-.1.1-.2-2-9.9-3.9-19.8-5.5-29.7-1.1-6.6-1.5-13.2-1-19.9.5-7.7.9-8.1 8-10.5 26.1-8.9 52.8-15.8 79.5-22.8 31.3-8.2 63-14.9 94.4-22.6 28.9-7.1 57.9-13.8 86.6-21.7 35-9.7 69.7-19.9 103.5-33.3 29.5-11.7 58-25.3 82.7-45.7 10.6-8.7 19.5-18.8 26.6-30.6 3.6-6 5.3-12.8 7.8-19.2 6-15.2 12.7-30.2 19-45.3 3.6-8.7 7.7-17.2 10-26.4 1.6-6.9-.1-12.6-4.6-17.6zm-152 95.5c-1 1-1.7 1-2.7 0-1-1.1-2.2-2-3.3-2.9-4.7-4.1-9.9-7.1-17-6.5 9.7-13.4 19-26.3 28.7-39.7 2.8 8.8 7.2 16.4 7.6 25.3.3 6.4-1.9 12-6.2 16.7-2.4 2.5-4.8 4.7-7.1 7.1zM465 93.2c-9.5 13.9-19.1 27.7-30.2 40.3-3.7 4.2-7.6 8.4-12.8 10.8-4.7 2.2-7.7.3-8.2-5-.8-7.5 2.1-13.7 6.6-19.4 5.2-6.5 11.6-11.7 18.3-16.5 9.6-6.9 19.8-12.8 30.3-18.4.4-.2.8-.3 1.2-.5.2.1.3.3.5.4-2 2.8-3.8 5.6-5.7 8.3z"/><path class="st1" d="M388.8 124.5c1.7 7.1 3.2 14.3 1.9 21.7-1.5 8.1-6.1 14.6-11.6 20.5-16.9 18.1-37.8 29.8-61.2 37.3-15.2 4.8-30.8 7.3-46.7 6.5-5.6-.3-11.3.2-16.3-3.3-10.4-7.2-18.9-21.6-12.5-37.7 5-12.5 13.2-22.6 23-31.6 15.3-14 32.9-24.5 51.5-33.4 1.2-.6 2.3-1.1 3.5-1.7.1-.1.2-.3.5-.9-8.3 1.2-16.2 2.4-24.3 2.9-10.2.6-20.3 1-30.3-1.7-14.5-3.8-20.5-13.8-17.3-28.5 2.4-11.1 8.2-20.3 15.8-28.6 13.7-14.8 30.7-24.6 49.2-31.8C332.5 7 351.8 2.6 371.5.2c4.1-.5 8.3-.4 12.4.9 2.7.8 4.4 2.3 5 5.3 1 5.2 2.4 10.3 3.5 15.4.9 4-.5 7.3-3.9 9.6-5.7 3.8-11.9 6.8-17.4 10.9-6 4.5-11.7 9.4-17.7 13.8-1.5 1.2-3.3 3.5-5.5 1.4-2-1.9-.3-4 .7-5.8 3.1-5.5 7.1-10.3 11.3-15.4-1.6-.5-2.9.1-4.1.4-23.2 5-45.1 13.1-64.2 27.7-4.1 3.2-7.9 6.7-11.1 10.9-1.2 1.6-2.2 3.2-2.9 5-1.7 4.3-.1 7.6 4.4 8.5 5 1.1 10.1.8 15.2.3 20.6-1.9 40.7-6.4 60.9-10.5 3.4-.7 6.8-1.1 10.2-.8 4.4.5 5.8 2.3 5.2 6.7-.4 2.6-1.2 5-2.1 7.5-1.9 5.1-5.2 8.7-10.2 11.2-8.9 4.3-18.4 7.2-27.5 11.2-18.5 8.1-35.9 17.9-50.7 32-6.5 6.2-12.4 12.8-15.5 21.4-2.2 5.9-.7 8.4 5.5 9.6 6.3 1.2 12.6.2 18.7-.9 20.9-3.8 40.2-11.8 58.4-22.6 8.2-4.9 15.3-11.4 22.4-17.7 4.6-4.1 9.2-8.3 13.8-12.5 1.3-1.3 2-1.3 2.5.8zM483 370.1c-.8-1.4-1.3-1.3-2.1-.2-1.9 2.5-3.7 5.1-5.7 7.5-4.8 6.2-9.2 12.8-15.2 18-4.2 3.6-6.9 2.8-9.1-2.3-.4-.9-.7-1.9-1-2.9-2.3-7.3-1.8-14.6-.3-21.9 2.9-13.6 7.8-26.6 11.7-39.9 3.1-10.5 6.9-20.9 9.4-31.6.9-4 1.6-8 .4-12.1-2-6.5-7.6-8-12.6-3.3-1.6 1.5-2.8 3.4-3.9 5.3-3.8 6.7-6 13.9-8 21.2-3 11-5.1 22.1-7.4 33.2-.4 1.9-.9 2.8-2.7 1.1-3.2-3-6.6-3-10.5-1.2-6.8 3.1-12.8 7.4-18.3 12.4-9.4 8.4-17.7 17.8-21.6 30-1.8 5.6-4.7 10.3-7.9 15-2.1 3.1-4.6 5.8-8.3 7.2-1 .4-2.1 1-2.9.3-.9-.7-.2-1.9 0-2.9 1.6-8.1 3-16.2.7-24.4-1.4-4.9-3.4-9.2-9.4-9.9.2-.5.3-.8.5-.9 1.9-1.9 3-4 1.8-6.7-1.3-2.9-3.7-4.2-6.8-4.4-2.5-.2-4.9.1-7.4 1-12.5 4.6-22.3 12.5-30.3 23-5.9 7.7-10.7 16-11.3 25.8-.3 4.6-2.1 8-4.7 11.5-2 2.8-4.4 5.3-7.7 6.6-1 .4-2.2 1.1-3.2.4-.9-.7-.2-1.9 0-2.9 1.6-8.1 3-16.2.7-24.4-1.4-5-3.5-9.2-9.4-9.9.2-.5.3-.8.5-1 1.9-1.9 3-4 1.7-6.7-1.3-2.9-3.7-4.2-6.8-4.4-2.5-.2-4.9.1-7.3 1-12.3 4.5-22.1 12.3-30 22.5-8.3 10.7-13.8 22.4-11.4 36.4 1.7 9.7 5.3 18.5 12.8 25.3 4.7 4.3 10.2 6.5 16.8 4.8 8.9-2.4 15.9-7.7 20.7-15.3 3.3-5.2 7-8.8 13.1-10.7 7.3-2.3 12.3-8 16.3-15.1 1.8 5.2 4.1 9.5 7.1 13.5 7.3 9.6 16.4 11.8 27.1 6.3 8-4 13.5-10.6 17.8-18.2 1-1.7 2.2-2.7 4.1-3.3 9.4-2.5 16.5-8 21.3-16.5.3-.6.4-1.5 1.4-1.6.5 1 .9 2 1.4 3 3 5.9 6.3 11.6 11.8 15.5 3.8 2.8 6.9 2.6 10.6-.3 1.4-1.1 2.6-2.3 3.8-3.6 5.3-6 9.5-12.8 13.6-19.5 1.9-3 3.7-6 6-9.7.5 4.1.9 7.3 1.4 10.6.8 5.3 1.9 10.6 5.7 14.8 3.6 4 7.4 4.8 12.2 2.6 4.8-2.2 8.6-5.7 12-9.6 7.7-8.9 13.4-19 19.1-29.2 2-3.7 1.4-6.2-.3-9.3zm-215.4 68.2c-3.3 5.1-6.6 10.1-13.2 11.5-5.4 1.2-9.1-1.1-10.1-6.6-1.8-10.2 1.2-19.2 7.7-27.1 4-4.8 8.4-9.3 13.2-13.5-.4 4.7-1.7 9.1-2.3 13.7-.9 7.1-.4 13.9 4.1 19.8.5.7 1.2 1.2.6 2.2zm77.8-18.9c-3.3 5.1-6.6 10.1-13.1 11.5-5.5 1.2-9.2-1-10.1-6.6-1.7-10 1-18.8 7.4-26.7 4.1-5 8.7-9.5 13.6-14-.4 4.7-1.8 9.3-2.3 13.9-.8 7-.3 13.7 4.1 19.6.2.7 1 1.3.4 2.3zm84.3-46.5c-5.6 10.5-12.3 20.2-20.1 29.1-1.1 1.2-2.1 3-4.3 2.2-2.1-.8-2.3-2.6-2.7-4.5-1.7-9.3 1.6-16.8 8.1-23.2 7.1-7 15.4-12.6 24-18.3-.4 5.7-2.6 10.3-5 14.7z"/><path d="M228.3 354.8c-8.5 14.3-20.2 25.3-34.5 33.8-.2.1-.3.2-.5.3-5.6 2.9-11.3 5.7-17.8 6.1l-4.8.3h-.1c-5.9-.3-11.8-1.2-17.2-3.6-4.6-2.1-8.6-4.7-9.5-10.3-.2-1.2-1.1-1-1.9-1.1-3.7-.6-7.4-1.3-11-2.8-1-.4-2-.9-2.2-2.2-.1-.9-.2-2 .7-2.5.9-.4 1.2.7 1.7 1.1 3.3 2.9 7.6 3.2 11.6 4 1 .2 1.6-.6 2-1.3 4.8-8.3 12.6-10.5 21.4-10.7 1.2 0 2.4 0 3.6-.1h.4c6.5.1 12.9.6 19.4-.4h.3c6.8-.2 13.4-1.6 19.9-3.3 6.3-1.9 12.4-4.4 18.5-7.3z" fill="#00c753"/></svg>