<svg id="Capa_1" data-name="Capa 1" xmlns="http://www.w3.org/2000/svg" xmlns:xlink="http://www.w3.org/1999/xlink" viewBox="0 0 873.35 1000"><defs><style>.cls-1{fill:url(#Nueva_muestra_de_degradado_1);}.cls-2{fill:#112f41;}.cls-3{fill:#fff;}</style><linearGradient id="Nueva_muestra_de_degradado_1" x1="321.66" y1="918.19" x2="758.35" y2="161.83" gradientUnits="userSpaceOnUse"><stop offset="0.04" stop-color="#5cd2b9"/><stop offset="1" stop-color="#c5ffe4"/></linearGradient></defs><title>Sin tiÌtulo-1 [Recuperado]</title><path class="cls-1" d="M976.68,303.63V776.41A27.22,27.22,0,0,1,963.06,800l0,0-409.4,236.33a27.25,27.25,0,0,1-27.28,0L117,800l0,0a27.22,27.22,0,0,1-13.62-23.58V303.63A27.29,27.29,0,0,1,116.94,280h0L526.36,43.66a27.25,27.25,0,0,1,27.28,0L963,280h0A27.29,27.29,0,0,1,976.68,303.63Z" transform="translate(-103.32 -40)"/><path class="cls-2" d="M963.06,280h0L553.64,43.66a27.25,27.25,0,0,0-27.28,0L117,280h0a27.29,27.29,0,0,0-13.62,23.61V776.41A27.22,27.22,0,0,0,116.94,800l0,0,409.4,236.33a27.25,27.25,0,0,0,27.28,0L963,800l0,0a27.22,27.22,0,0,0,13.62-23.58V303.63A27.29,27.29,0,0,0,963.06,280ZM526.36,75.18a27.25,27.25,0,0,1,27.28,0l382.1,220.61-4.68,2.7L826.6,358.81l-273-157.57a27.25,27.25,0,0,0-27.28,0l-273,157.57-90.81-52.44-18.33-10.58ZM695.71,535.35,567.3,461.22l-13.66-7.88V242a5.36,5.36,0,0,1,8.05-4.64l237.6,137.17,8.28,4.78a10.74,10.74,0,0,1,5.32,8.48,7,7,0,0,1,0,.8V681.86a27.24,27.24,0,0,1-13.62,23.58l0,0-232,133.9-5.61,3.24a5.36,5.36,0,0,1-8.05-4.64V626.65l142.07-82a5.29,5.29,0,0,0,2.26-2.58A5.38,5.38,0,0,0,695.71,535.35ZM526.36,1004.84,147,785.81h0l-2.71-1.58,0,0a27.27,27.27,0,0,1-13.64-23.6V319.43l109.16,63V697.61a27.24,27.24,0,0,0,13.62,23.58l0,0,2.74,1.59,270.18,156Zm0-166.87a5.36,5.36,0,0,1-8.05,4.64L283.46,707.06l-2.75-1.59,0,0a27.24,27.24,0,0,1-13.62-23.58V388.62a10.73,10.73,0,0,1,5.36-9.28l8.28-4.78,237.6-137.17a5.36,5.36,0,0,1,8.05,4.64V453.34l-142.07,82a5.38,5.38,0,0,0,0,9.3l10.28,5.93,131.79,76.07ZM540,603l-13.64-7.89-77.19-44.55L430.82,540l95.54-55.13L540,477l13.64,7.89L649.18,540l-4.7,2.7h0l-90.83,52.43ZM949.38,760.61a27.27,27.27,0,0,1-13.64,23.6l0,0L567.3,997l-13.66,7.88V878.78L826.56,721.22l0,0a27.24,27.24,0,0,0,13.62-23.58V382.44l109.16-63Z" transform="translate(-103.32 -40)"/><polygon class="cls-3" points="545.85 500 541.16 502.7 541.15 502.7 463.97 458.16 450.32 450.27 436.68 458.16 345.84 510.59 327.5 500 423.03 444.87 436.68 436.98 450.32 444.87 545.85 500"/><polygon class="cls-3" points="423.03 586.65 423.03 592.07 286.56 513.29 291.25 510.59 423.03 586.65"/><path class="cls-3" d="M717.41,553.29,567.3,639.94V839.37l-5.61,3.24a5.36,5.36,0,0,1-8.05-4.64V626.65l142.07-82a5.33,5.33,0,0,0,2.26-2.57Z" transform="translate(-103.32 -40)"/><path class="cls-3" d="M526.36,878.78v5.41L267.07,734.51l0,0a27.09,27.09,0,0,1-10.86-11.67Z" transform="translate(-103.32 -40)"/><path class="cls-3" d="M949.38,319.42V340.6l-95.52,55.13V710.91a27.22,27.22,0,0,1-13.62,23.57l0,0L567.3,892.07V997l-13.66,7.88V878.78L826.57,721.22l0,0a27.24,27.24,0,0,0,13.62-23.58V382.44Z" transform="translate(-103.32 -40)"/><path class="cls-3" d="M812.89,387.82,567.3,246V461.22l-13.66-7.88V242a5.36,5.36,0,0,1,8.05-4.64L799.28,374.55l8.29,4.8A10.69,10.69,0,0,1,812.89,387.82Z" transform="translate(-103.32 -40)"/><path class="cls-3" d="M526.36,242V253.9l-232,133.94-13.65,7.89V695.15a27.17,27.17,0,0,0,2.74,11.91l-2.74-1.59,0,0a27.25,27.25,0,0,1-13.63-23.59V388.62a10.7,10.7,0,0,1,5.36-9.27l8.29-4.8L518.31,237.39A5.36,5.36,0,0,1,526.36,242Z" transform="translate(-103.32 -40)"/><path class="cls-3" d="M144.26,332.71V773.9A27.41,27.41,0,0,0,147,785.8l-2.72-1.56,0,0a27.24,27.24,0,0,1-13.64-23.6V319.42l109.16,63v5.41Z" transform="translate(-103.32 -40)"/><path class="cls-3" d="M935.74,295.79l-4.69,2.7L567.3,88.47a27.28,27.28,0,0,0-27.3,0L162.59,306.37l-18.33-10.58L526.36,75.18a27.25,27.25,0,0,1,27.28,0Z" transform="translate(-103.32 -40)"/></svg>